<svg width="388" height="55" viewBox="0 0 388 55" fill="none" xmlns="http://www.w3.org/2000/svg">
<path d="M32.4192 3.5008V46H28.1632V26.1184H5.12V46H0.864V3.5008H5.12V22.592H28.1632V3.5008H32.4192ZM44.2576 6.5408C43.4064 6.5408 42.6768 6.2368 42.0688 5.6288C41.4608 5.0208 41.1568 4.27093 41.1568 3.3792C41.1568 2.48746 41.4608 1.75786 42.0688 1.1904C42.6768 0.582398 43.4064 0.278399 44.2576 0.278399C45.1088 0.278399 45.8384 0.582398 46.4464 1.1904C47.0544 1.75786 47.3584 2.48746 47.3584 3.3792C47.3584 4.27093 47.0544 5.0208 46.4464 5.6288C45.8384 6.2368 45.1088 6.5408 44.2576 6.5408ZM46.3856 12.8032V46H42.1296V12.8032H46.3856ZM59.9146 38.9472L53.5914 54.8768H50.673L55.1722 38.9472H59.9146ZM87.4731 3.5008V46H83.2171V3.5008H87.4731ZM111.85 29.3408C111.85 25.936 112.518 22.9568 113.856 20.4032C115.234 17.8091 117.119 15.8229 119.51 14.4448C121.942 13.0261 124.678 12.3168 127.718 12.3168C130.88 12.3168 133.596 13.0464 135.866 14.5056C138.176 15.9648 139.838 17.8293 140.851 20.0992V12.8032H145.107V46H140.851V38.6432C139.797 40.9131 138.115 42.7979 135.805 44.2976C133.535 45.7568 130.819 46.4864 127.658 46.4864C124.658 46.4864 121.942 45.7771 119.51 44.3584C117.119 42.9397 115.234 40.9333 113.856 38.3392C112.518 35.7451 111.85 32.7456 111.85 29.3408ZM140.851 29.4016C140.851 26.7264 140.304 24.3755 139.21 22.3488C138.115 20.3221 136.616 18.7616 134.71 17.6672C132.846 16.5728 130.779 16.0256 128.509 16.0256C126.158 16.0256 124.05 16.5525 122.186 17.6064C120.321 18.6603 118.842 20.2005 117.747 22.2272C116.693 24.2133 116.166 26.5845 116.166 29.3408C116.166 32.0565 116.693 34.448 117.747 36.5152C118.842 38.5419 120.321 40.1024 122.186 41.1968C124.05 42.2507 126.158 42.7776 128.509 42.7776C130.779 42.7776 132.846 42.2304 134.71 41.136C136.616 40.0416 138.115 38.4811 139.21 36.4544C140.304 34.4277 140.851 32.0768 140.851 29.4016ZM194.343 12.1952C198.235 12.1952 201.396 13.4315 203.828 15.904C206.301 18.336 207.537 21.8827 207.537 26.544V46H203.342V27.0304C203.342 23.4229 202.47 20.6667 200.727 18.7616C198.984 16.8565 196.613 15.904 193.614 15.904C190.493 15.904 188 16.9376 186.135 19.0048C184.271 21.072 183.339 24.0715 183.339 28.0032V46H179.143V27.0304C179.143 23.4229 178.272 20.6667 176.529 18.7616C174.786 16.8565 172.395 15.904 169.355 15.904C166.234 15.904 163.741 16.9376 161.876 19.0048C160.012 21.072 159.079 24.0715 159.079 28.0032V46H154.823V12.8032H159.079V18.5184C160.133 16.4512 161.633 14.8907 163.579 13.8368C165.524 12.7424 167.693 12.1952 170.084 12.1952C172.962 12.1952 175.475 12.8843 177.623 14.2624C179.812 15.6405 181.393 17.6672 182.366 20.3424C183.258 17.7077 184.778 15.7013 186.926 14.3232C189.115 12.9045 191.587 12.1952 194.343 12.1952ZM237.929 3.5008V46H233.673V3.5008H237.929ZM251.823 18.7008C252.755 16.6336 254.174 15.0325 256.079 13.8976C258.025 12.7627 260.396 12.1952 263.193 12.1952V16.6336H262.038C258.957 16.6336 256.484 17.4645 254.62 19.1264C252.755 20.7883 251.823 23.5648 251.823 27.456V46H247.567V12.8032H251.823V18.7008ZM299.63 27.6992C299.63 29.1584 299.59 30.2731 299.509 31.0432H271.966C272.088 33.5563 272.696 35.7045 273.79 37.488C274.885 39.2715 276.324 40.6293 278.107 41.5616C279.891 42.4533 281.836 42.8992 283.944 42.8992C286.7 42.8992 289.011 42.2304 290.875 40.8928C292.78 39.5552 294.037 37.7515 294.645 35.4816H299.144C298.333 38.7243 296.59 41.3792 293.915 43.4464C291.281 45.4731 287.957 46.4864 283.944 46.4864C280.823 46.4864 278.026 45.7973 275.554 44.4192C273.081 43.0005 271.135 41.0144 269.717 38.4608C268.339 35.8667 267.65 32.8469 267.65 29.4016C267.65 25.9563 268.339 22.9365 269.717 20.3424C271.095 17.7483 273.02 15.7621 275.493 14.384C277.965 13.0059 280.782 12.3168 283.944 12.3168C287.106 12.3168 289.862 13.0059 292.213 14.384C294.604 15.7621 296.428 17.6267 297.685 19.9776C298.982 22.288 299.63 24.8619 299.63 27.6992ZM295.314 27.5776C295.354 25.1051 294.847 22.9973 293.794 21.2544C292.78 19.5115 291.382 18.1941 289.598 17.3024C287.815 16.4107 285.869 15.9648 283.762 15.9648C280.6 15.9648 277.905 16.9781 275.675 19.0048C273.446 21.0315 272.21 23.8891 271.966 27.5776H295.314ZM322.982 12.1952C326.954 12.1952 330.197 13.4315 332.71 15.904C335.223 18.336 336.48 21.8827 336.48 26.544V46H332.284V27.0304C332.284 23.4229 331.372 20.6667 329.548 18.7616C327.765 16.8565 325.313 15.904 322.192 15.904C318.989 15.904 316.436 16.9173 314.531 18.944C312.626 20.9707 311.673 23.9499 311.673 27.8816V46H307.417V12.8032H311.673V18.4576C312.727 16.4309 314.247 14.8907 316.233 13.8368C318.219 12.7424 320.469 12.1952 322.982 12.1952ZM375.927 27.6992C375.927 29.1584 375.887 30.2731 375.806 31.0432H348.263C348.385 33.5563 348.993 35.7045 350.087 37.488C351.182 39.2715 352.621 40.6293 354.404 41.5616C356.188 42.4533 358.133 42.8992 360.241 42.8992C362.997 42.8992 365.308 42.2304 367.172 40.8928C369.077 39.5552 370.334 37.7515 370.942 35.4816H375.441C374.63 38.7243 372.887 41.3792 370.212 43.4464C367.577 45.4731 364.254 46.4864 360.241 46.4864C357.12 46.4864 354.323 45.7973 351.851 44.4192C349.378 43.0005 347.432 41.0144 346.014 38.4608C344.636 35.8667 343.947 32.8469 343.947 29.4016C343.947 25.9563 344.636 22.9365 346.014 20.3424C347.392 17.7483 349.317 15.7621 351.79 14.384C354.262 13.0059 357.079 12.3168 360.241 12.3168C363.403 12.3168 366.159 13.0059 368.51 14.384C370.901 15.7621 372.725 17.6267 373.982 19.9776C375.279 22.288 375.927 24.8619 375.927 27.6992ZM371.611 27.5776C371.651 25.1051 371.144 22.9973 370.091 21.2544C369.077 19.5115 367.679 18.1941 365.895 17.3024C364.112 16.4107 362.166 15.9648 360.059 15.9648C356.897 15.9648 354.201 16.9781 351.972 19.0048C349.743 21.0315 348.507 23.8891 348.263 27.5776H371.611ZM384.444 46.304C383.552 46.304 382.802 46 382.194 45.392C381.627 44.784 381.343 44.0341 381.343 43.1424C381.343 42.2507 381.627 41.5211 382.194 40.9536C382.802 40.3456 383.552 40.0416 384.444 40.0416C385.295 40.0416 386.004 40.3456 386.572 40.9536C387.18 41.5211 387.484 42.2507 387.484 43.1424C387.484 44.0341 387.18 44.784 386.572 45.392C386.004 46 385.295 46.304 384.444 46.304Z" fill="black"/>
</svg>
