<svg width="616" height="46" viewBox="0 0 616 46" fill="none" xmlns="http://www.w3.org/2000/svg">
<path d="M0.00639996 23.5984C0.00639996 19.3829 0.9184 15.6336 2.7424 12.3504C4.5664 9.02667 7.09973 6.4528 10.3424 4.6288C13.6256 2.76426 17.3344 1.832 21.4688 1.832C26.5355 1.832 30.8725 3.1696 34.48 5.8448C38.0875 8.52 40.4992 12.168 41.7152 16.7888H30.2848C29.4336 15.0053 28.2176 13.6475 26.6368 12.7152C25.0965 11.7829 23.3333 11.3168 21.3472 11.3168C18.1451 11.3168 15.5509 12.4315 13.5648 14.6608C11.5787 16.8901 10.5856 19.8693 10.5856 23.5984C10.5856 27.3275 11.5787 30.3067 13.5648 32.536C15.5509 34.7653 18.1451 35.88 21.3472 35.88C23.3333 35.88 25.0965 35.4139 26.6368 34.4816C28.2176 33.5493 29.4336 32.1915 30.2848 30.408H41.7152C40.4992 35.0288 38.0875 38.6768 34.48 41.352C30.8725 43.9867 26.5355 45.304 21.4688 45.304C17.3344 45.304 13.6256 44.392 10.3424 42.568C7.09973 40.7035 4.5664 38.1296 2.7424 34.8464C0.9184 31.5632 0.00639996 27.8139 0.00639996 23.5984ZM68.9365 10.7088C72.8277 10.7088 75.9488 12.0059 78.2997 14.6C80.6506 17.1536 81.8261 20.68 81.8261 25.1792V45H71.4901V26.5776C71.4901 24.3077 70.9024 22.5445 69.7269 21.288C68.5514 20.0315 66.9706 19.4032 64.9845 19.4032C62.9984 19.4032 61.4176 20.0315 60.2421 21.288C59.0666 22.5445 58.4789 24.3077 58.4789 26.5776V45H48.0821V0.00799998H58.4789V15.6336C59.5328 14.1339 60.9717 12.9381 62.7957 12.0464C64.6197 11.1547 66.6666 10.7088 68.9365 10.7088ZM121.032 27.4896C121.032 28.4624 120.971 29.4757 120.849 30.5296H97.3197C97.4818 32.6373 98.1506 34.2587 99.3261 35.3936C100.542 36.488 102.022 37.0352 103.764 37.0352C106.359 37.0352 108.162 35.9408 109.176 33.752H120.241C119.674 35.9813 118.64 37.9877 117.14 39.7712C115.681 41.5547 113.837 42.9531 111.608 43.9664C109.378 44.9797 106.886 45.4864 104.129 45.4864C100.806 45.4864 97.8466 44.7771 95.2525 43.3584C92.6583 41.9397 90.6317 39.9131 89.1725 37.2784C87.7133 34.6437 86.9837 31.5632 86.9837 28.0368C86.9837 24.5104 87.693 21.4299 89.1117 18.7952C90.5709 16.1605 92.5975 14.1339 95.1917 12.7152C97.7858 11.2965 100.765 10.5872 104.129 10.5872C107.412 10.5872 110.331 11.2763 112.884 12.6544C115.438 14.0325 117.424 15.9984 118.843 18.552C120.302 21.1056 121.032 24.0848 121.032 27.4896ZM110.392 24.7536C110.392 22.9701 109.784 21.5515 108.568 20.4976C107.352 19.4437 105.832 18.9168 104.008 18.9168C102.265 18.9168 100.785 19.4235 99.5693 20.4368C98.3938 21.4501 97.6642 22.8891 97.3805 24.7536H110.392ZM124.449 28.0368C124.449 24.5104 125.159 21.4299 126.577 18.7952C128.036 16.1605 130.043 14.1339 132.596 12.7152C135.191 11.2965 138.15 10.5872 141.473 10.5872C145.729 10.5872 149.276 11.7019 152.113 13.9312C154.991 16.1605 156.876 19.3019 157.768 23.3552H146.702C145.77 20.7611 143.966 19.464 141.291 19.464C139.386 19.464 137.866 20.2139 136.731 21.7136C135.596 23.1728 135.028 25.2805 135.028 28.0368C135.028 30.7931 135.596 32.9211 136.731 34.4208C137.866 35.88 139.386 36.6096 141.291 36.6096C143.966 36.6096 145.77 35.3125 146.702 32.7184H157.768C156.876 36.6907 154.991 39.8117 152.113 42.0816C149.235 44.3515 145.689 45.4864 141.473 45.4864C138.15 45.4864 135.191 44.7771 132.596 43.3584C130.043 41.9397 128.036 39.9131 126.577 37.2784C125.159 34.6437 124.449 31.5632 124.449 28.0368ZM184.062 45L173.726 30.7728V45H163.329V0.00799998H173.726V24.8752L184.001 11.0736H196.83L182.724 28.0976L196.951 45H184.062ZM229.241 45.4864C225.917 45.4864 222.918 44.7771 220.243 43.3584C217.608 41.9397 215.52 39.9131 213.98 37.2784C212.48 34.6437 211.731 31.5632 211.731 28.0368C211.731 24.5509 212.501 21.4907 214.041 18.856C215.581 16.1808 217.689 14.1339 220.364 12.7152C223.039 11.2965 226.039 10.5872 229.363 10.5872C232.686 10.5872 235.686 11.2965 238.361 12.7152C241.036 14.1339 243.144 16.1808 244.684 18.856C246.224 21.4907 246.995 24.5509 246.995 28.0368C246.995 31.5227 246.204 34.6032 244.623 37.2784C243.083 39.9131 240.955 41.9397 238.239 43.3584C235.564 44.7771 232.565 45.4864 229.241 45.4864ZM229.241 36.488C231.227 36.488 232.909 35.7584 234.287 34.2992C235.706 32.84 236.415 30.7525 236.415 28.0368C236.415 25.3211 235.726 23.2336 234.348 21.7744C233.011 20.3152 231.349 19.5856 229.363 19.5856C227.336 19.5856 225.654 20.3152 224.316 21.7744C222.979 23.1931 222.31 25.2805 222.31 28.0368C222.31 30.7525 222.958 32.84 224.255 34.2992C225.593 35.7584 227.255 36.488 229.241 36.488ZM286.011 11.0736V45H275.614V40.3792C274.56 41.8789 273.121 43.0949 271.297 44.0272C269.514 44.9189 267.528 45.3648 265.339 45.3648C262.745 45.3648 260.455 44.7973 258.469 43.6624C256.482 42.4869 254.942 40.8048 253.848 38.616C252.753 36.4272 252.206 33.8533 252.206 30.8944V11.0736H262.542V29.496C262.542 31.7659 263.13 33.5291 264.305 34.7856C265.481 36.0421 267.062 36.6704 269.048 36.6704C271.074 36.6704 272.676 36.0421 273.851 34.7856C275.026 33.5291 275.614 31.7659 275.614 29.496V11.0736H286.011ZM312.388 36.184V45H307.098C303.329 45 300.39 44.088 298.282 42.264C296.174 40.3995 295.121 37.3797 295.121 33.2048V19.7072H290.986V11.0736H295.121V2.8048H305.517V11.0736H312.327V19.7072H305.517V33.3264C305.517 34.3397 305.761 35.0693 306.247 35.5152C306.733 35.9611 307.544 36.184 308.679 36.184H312.388ZM346.507 45.4864C343.183 45.4864 340.183 44.7771 337.508 43.3584C334.873 41.9397 332.786 39.9131 331.246 37.2784C329.746 34.6437 328.996 31.5632 328.996 28.0368C328.996 24.5509 329.766 21.4907 331.307 18.856C332.847 16.1808 334.955 14.1339 337.63 12.7152C340.305 11.2965 343.304 10.5872 346.628 10.5872C349.952 10.5872 352.951 11.2965 355.627 12.7152C358.302 14.1339 360.409 16.1808 361.95 18.856C363.49 21.4907 364.26 24.5509 364.26 28.0368C364.26 31.5227 363.47 34.6032 361.889 37.2784C360.349 39.9131 358.221 41.9397 355.505 43.3584C352.83 44.7771 349.83 45.4864 346.507 45.4864ZM346.507 36.488C348.493 36.488 350.175 35.7584 351.553 34.2992C352.972 32.84 353.681 30.7525 353.681 28.0368C353.681 25.3211 352.992 23.2336 351.614 21.7744C350.276 20.3152 348.614 19.5856 346.628 19.5856C344.601 19.5856 342.919 20.3152 341.582 21.7744C340.244 23.1931 339.575 25.2805 339.575 28.0368C339.575 30.7525 340.224 32.84 341.521 34.2992C342.859 35.7584 344.52 36.488 346.507 36.488ZM403.277 11.0736V45H392.88V40.3792C391.826 41.8789 390.387 43.0949 388.563 44.0272C386.78 44.9189 384.793 45.3648 382.605 45.3648C380.011 45.3648 377.72 44.7973 375.734 43.6624C373.748 42.4869 372.208 40.8048 371.113 38.616C370.019 36.4272 369.472 33.8533 369.472 30.8944V11.0736H379.808V29.496C379.808 31.7659 380.396 33.5291 381.571 34.7856C382.747 36.0421 384.327 36.6704 386.313 36.6704C388.34 36.6704 389.941 36.0421 391.117 34.7856C392.292 33.5291 392.88 31.7659 392.88 29.496V11.0736H403.277ZM421.141 16.728C422.357 14.8635 423.877 13.4043 425.701 12.3504C427.525 11.256 429.552 10.7088 431.781 10.7088V21.7136H428.924C426.33 21.7136 424.384 22.2811 423.087 23.416C421.79 24.5104 421.141 26.456 421.141 29.2528V45H410.745V11.0736H421.141V16.728ZM498.336 11.0736L489.155 45H477.664L472.314 22.9904L466.781 45H455.35L446.109 11.0736H456.506L461.309 35.3328L467.024 11.0736H478.029L483.805 35.2112L488.547 11.0736H498.336ZM517.744 45.4864C514.42 45.4864 511.421 44.7771 508.746 43.3584C506.111 41.9397 504.024 39.9131 502.483 37.2784C500.984 34.6437 500.234 31.5632 500.234 28.0368C500.234 24.5509 501.004 21.4907 502.544 18.856C504.084 16.1808 506.192 14.1339 508.867 12.7152C511.542 11.2965 514.542 10.5872 517.866 10.5872C521.189 10.5872 524.189 11.2965 526.864 12.7152C529.539 14.1339 531.647 16.1808 533.187 18.856C534.728 21.4907 535.498 24.5509 535.498 28.0368C535.498 31.5227 534.707 34.6032 533.126 37.2784C531.586 39.9131 529.458 41.9397 526.742 43.3584C524.067 44.7771 521.068 45.4864 517.744 45.4864ZM517.744 36.488C519.73 36.488 521.412 35.7584 522.79 34.2992C524.209 32.84 524.918 30.7525 524.918 28.0368C524.918 25.3211 524.229 23.2336 522.851 21.7744C521.514 20.3152 519.852 19.5856 517.866 19.5856C515.839 19.5856 514.157 20.3152 512.819 21.7744C511.482 23.1931 510.813 25.2805 510.813 28.0368C510.813 30.7525 511.461 32.84 512.758 34.2992C514.096 35.7584 515.758 36.488 517.744 36.488ZM551.41 16.728C552.626 14.8635 554.146 13.4043 555.97 12.3504C557.794 11.256 559.821 10.7088 562.05 10.7088V21.7136H559.193C556.598 21.7136 554.653 22.2811 553.356 23.416C552.059 24.5104 551.41 26.456 551.41 29.2528V45H541.013V11.0736H551.41V16.728ZM587.752 45L577.416 30.7728V45H567.02V0.00799998H577.416V24.8752L587.692 11.0736H600.52L586.415 28.0976L600.642 45H587.752ZM609.468 45.4864C607.644 45.4864 606.144 44.9595 604.969 43.9056C603.834 42.8112 603.266 41.4736 603.266 39.8928C603.266 38.2715 603.834 36.9136 604.969 35.8192C606.144 34.7248 607.644 34.1776 609.468 34.1776C611.251 34.1776 612.711 34.7248 613.846 35.8192C615.021 36.9136 615.609 38.2715 615.609 39.8928C615.609 41.4736 615.021 42.8112 613.846 43.9056C612.711 44.9595 611.251 45.4864 609.468 45.4864Z" fill="black"/>
</svg>
