<svg width="414" height="57" viewBox="0 0 414 57" fill="none" xmlns="http://www.w3.org/2000/svg">
<path d="M37.736 6.3184V49H27.3392V31.4288H11.1664V49H0.7696V6.3184H11.1664V23.0384H27.3392V6.3184H37.736ZM50.4703 11.5472C48.6463 11.5472 47.1465 11.0203 45.9711 9.9664C44.8361 8.872 44.2687 7.5344 44.2687 5.9536C44.2687 4.33227 44.8361 2.99467 45.9711 1.9408C47.1465 0.846397 48.6463 0.299197 50.4703 0.299197C52.2537 0.299197 53.7129 0.846397 54.8479 1.9408C56.0233 2.99467 56.6111 4.33227 56.6111 5.9536C56.6111 7.5344 56.0233 8.872 54.8479 9.9664C53.7129 11.0203 52.2537 11.5472 50.4703 11.5472ZM55.6383 15.0736V49H45.2415V15.0736H55.6383ZM74.3599 39.3936L67.6111 56.8432H60.9839L64.5103 39.3936H74.3599ZM103.91 6.3184V49H93.5133V6.3184H103.91ZM122.262 31.976C122.262 28.4901 122.91 25.4299 124.207 22.7952C125.545 20.1605 127.349 18.1339 129.619 16.7152C131.888 15.2965 134.422 14.5872 137.219 14.5872C139.61 14.5872 141.698 15.0736 143.481 16.0464C145.305 17.0192 146.703 18.296 147.676 19.8768V15.0736H158.073V49H147.676V44.1968C146.663 45.7776 145.244 47.0544 143.42 48.0272C141.637 49 139.549 49.4864 137.158 49.4864C134.402 49.4864 131.888 48.7771 129.619 47.3584C127.349 45.8992 125.545 43.8523 124.207 41.2176C122.91 38.5424 122.262 35.4619 122.262 31.976ZM147.676 32.0368C147.676 29.4427 146.947 27.3957 145.487 25.896C144.069 24.3963 142.326 23.6464 140.259 23.6464C138.191 23.6464 136.428 24.3963 134.969 25.896C133.55 27.3552 132.841 29.3819 132.841 31.976C132.841 34.5701 133.55 36.6373 134.969 38.1776C136.428 39.6773 138.191 40.4272 140.259 40.4272C142.326 40.4272 144.069 39.6773 145.487 38.1776C146.947 36.6779 147.676 34.6309 147.676 32.0368ZM208.884 14.7088C213.1 14.7088 216.444 15.9856 218.916 18.5392C221.429 21.0928 222.686 24.6395 222.686 29.1792V49H212.35V30.5776C212.35 28.3888 211.762 26.7067 210.587 25.5312C209.452 24.3152 207.871 23.7072 205.844 23.7072C203.818 23.7072 202.216 24.3152 201.041 25.5312C199.906 26.7067 199.339 28.3888 199.339 30.5776V49H189.003V30.5776C189.003 28.3888 188.415 26.7067 187.239 25.5312C186.104 24.3152 184.524 23.7072 182.497 23.7072C180.47 23.7072 178.869 24.3152 177.694 25.5312C176.559 26.7067 175.991 28.3888 175.991 30.5776V49H165.595V15.0736H175.991V19.3296C177.045 17.9109 178.423 16.7963 180.126 15.9856C181.828 15.1344 183.754 14.7088 185.902 14.7088C188.455 14.7088 190.725 15.256 192.711 16.3504C194.738 17.4448 196.319 19.0053 197.454 21.032C198.629 19.1675 200.23 17.6475 202.257 16.472C204.284 15.2965 206.493 14.7088 208.884 14.7088ZM253.238 6.3184V49H242.841V6.3184H253.238ZM271.17 20.728C272.386 18.8635 273.906 17.4043 275.73 16.3504C277.554 15.256 279.58 14.7088 281.81 14.7088V25.7136H278.952C276.358 25.7136 274.412 26.2811 273.115 27.416C271.818 28.5104 271.17 30.456 271.17 33.2528V49H260.773V15.0736H271.17V20.728ZM318.76 31.4896C318.76 32.4624 318.699 33.4757 318.577 34.5296H295.048C295.21 36.6373 295.879 38.2587 297.054 39.3936C298.27 40.488 299.75 41.0352 301.493 41.0352C304.087 41.0352 305.89 39.9408 306.904 37.752H317.969C317.402 39.9813 316.368 41.9877 314.869 43.7712C313.409 45.5547 311.565 46.9531 309.336 47.9664C307.106 48.9797 304.614 49.4864 301.857 49.4864C298.534 49.4864 295.575 48.7771 292.981 47.3584C290.386 45.9397 288.36 43.9131 286.901 41.2784C285.441 38.6437 284.712 35.5632 284.712 32.0368C284.712 28.5104 285.421 25.4299 286.84 22.7952C288.299 20.1605 290.326 18.1339 292.92 16.7152C295.514 15.2965 298.493 14.5872 301.857 14.5872C305.141 14.5872 308.059 15.2763 310.613 16.6544C313.166 18.0325 315.152 19.9984 316.571 22.552C318.03 25.1056 318.76 28.0848 318.76 31.4896ZM308.12 28.7536C308.12 26.9701 307.512 25.5515 306.296 24.4976C305.08 23.4437 303.56 22.9168 301.736 22.9168C299.993 22.9168 298.513 23.4235 297.297 24.4368C296.122 25.4501 295.392 26.8891 295.109 28.7536H308.12ZM344.917 14.7088C348.889 14.7088 352.05 16.0059 354.401 18.6C356.793 21.1536 357.989 24.68 357.989 29.1792V49H347.653V30.5776C347.653 28.3077 347.065 26.5445 345.889 25.288C344.714 24.0315 343.133 23.4032 341.147 23.4032C339.161 23.4032 337.58 24.0315 336.405 25.288C335.229 26.5445 334.641 28.3077 334.641 30.5776V49H324.245V15.0736H334.641V19.5728C335.695 18.0731 337.114 16.8976 338.897 16.0464C340.681 15.1547 342.687 14.7088 344.917 14.7088ZM397.194 31.4896C397.194 32.4624 397.133 33.4757 397.012 34.5296H373.482C373.644 36.6373 374.313 38.2587 375.489 39.3936C376.705 40.488 378.184 41.0352 379.927 41.0352C382.521 41.0352 384.325 39.9408 385.338 37.752H396.404C395.836 39.9813 394.803 41.9877 393.303 43.7712C391.844 45.5547 389.999 46.9531 387.77 47.9664C385.541 48.9797 383.048 49.4864 380.292 49.4864C376.968 49.4864 374.009 48.7771 371.415 47.3584C368.821 45.9397 366.794 43.9131 365.335 41.2784C363.876 38.6437 363.146 35.5632 363.146 32.0368C363.146 28.5104 363.855 25.4299 365.274 22.7952C366.733 20.1605 368.76 18.1339 371.354 16.7152C373.948 15.2965 376.927 14.5872 380.292 14.5872C383.575 14.5872 386.493 15.2763 389.047 16.6544C391.601 18.0325 393.587 19.9984 395.005 22.552C396.465 25.1056 397.194 28.0848 397.194 31.4896ZM386.554 28.7536C386.554 26.9701 385.946 25.5515 384.73 24.4976C383.514 23.4437 381.994 22.9168 380.17 22.9168C378.427 22.9168 376.948 23.4235 375.732 24.4368C374.556 25.4501 373.827 26.8891 373.543 28.7536H386.554ZM407.543 49.4864C405.719 49.4864 404.219 48.9595 403.044 47.9056C401.909 46.8112 401.341 45.4736 401.341 43.8928C401.341 42.2715 401.909 40.9136 403.044 39.8192C404.219 38.7248 405.719 38.1776 407.543 38.1776C409.326 38.1776 410.786 38.7248 411.921 39.8192C413.096 40.9136 413.684 42.2715 413.684 43.8928C413.684 45.4736 413.096 46.8112 411.921 47.9056C410.786 48.9595 409.326 49.4864 407.543 49.4864Z" fill="black"/>
</svg>
